<?xml version="1.0" encoding="utf-8"?><svg xmlns="http://www.w3.org/2000/svg" xmlns:xlink="http://www.w3.org/1999/xlink"><symbol viewBox="0 0 344.96 344.96" id="check" xmlns="http://www.w3.org/2000/svg"><g data-name="Слой 2"><path d="M321.85 86.24l-40-23.11-23.1-40H212.5L172.48 0l-40 23.11H86.24l-23.11 40-40 23.1v46.21L0 172.48l23.11 40v46.21l40 23.11 23.11 40h46.21l40 23.1 40-23.11h46.21l23.11-40 40-23.11V212.5l23.11-40-23.11-40V86.24zM156.91 243.07a16.79 16.79 0 01-23.34 0l-50.45-50.44a16.19 16.19 0 010-22.89l13.35-13.35a16.19 16.19 0 0122.89 0l25.87 25.87 80.34-80.35a16.19 16.19 0 0122.89 0l13.35 13.35a16.19 16.19 0 010 22.89z" data-name="Capa 1"/></g></symbol><symbol viewBox="0 0 512 512" id="info" xmlns="http://www.w3.org/2000/svg"><path d="M256 0C114.51 0 0 114.497 0 256c0 141.49 114.497 256 256 256 141.49 0 256-114.497 256-256C512 114.51 397.503 0 256 0zm0 477.867c-122.337 0-221.867-99.529-221.867-221.867S133.663 34.133 256 34.133 477.867 133.663 477.867 256 378.337 477.867 256 477.867z"/><path d="M255.997 209.777c-9.425 0-17.067 7.641-17.067 17.067v143.969c0 9.425 7.641 17.067 17.067 17.067s17.067-7.641 17.067-17.067v-143.97c-.001-9.426-7.642-17.066-17.067-17.066zm.003-85.655c-18.821 0-34.133 15.312-34.133 34.133s15.312 34.133 34.133 34.133 34.133-15.312 34.133-34.133-15.312-34.133-34.133-34.133z"/></symbol><symbol viewBox="0 0 512 512" id="logo" xmlns="http://www.w3.org/2000/svg"><path d="M17.066 332.8h170.668c9.422-.01 17.055-7.644 17.067-17.066V196.266c-.012-9.422-7.645-17.055-17.067-17.067H17.066C7.645 179.211.012 186.844 0 196.266v119.468c.012 9.422 7.645 17.055 17.066 17.067zm0-136.534h170.668l.008 119.468H17.066zm0 315.734h68.266c9.422-.012 17.059-7.645 17.066-17.066v-119.47c-.007-9.417-7.644-17.054-17.066-17.066H17.066C7.645 358.41.012 366.047 0 375.465v119.469c.012 9.421 7.645 17.054 17.066 17.066zm0-136.535h68.266l.012 119.469H17.066zm0 0"/><path d="M494.934 0H17.066C7.645.012.012 7.645 0 17.066v119.47c.012 9.417 7.645 17.054 17.066 17.066h234.965a173.267 173.267 0 0112.352 25.597h-16.918c-9.418.012-17.055 7.645-17.067 17.067v119.468c.012 9.422 7.649 17.055 17.067 17.067h16.426c-.118 3.855-.344 7.73-.301 11.539.058 4.515.277 9.246.57 14.058H145.066c-9.421.012-17.054 7.649-17.066 17.067v119.469c.012 9.421 7.645 17.054 17.066 17.066h349.868c9.421-.012 17.054-7.645 17.066-17.066V17.066C511.988 7.645 504.355.012 494.934 0zM17.066 17.066h142.872a229.197 229.197 0 001.164 35.832c4.722 24.5 23.847 36.872 40.722 47.79l2.742 1.773a144.794 144.794 0 0136.145 34.074H17.066zm230.399 179.2h22.39a177.824 177.824 0 016.286 43.664 166.179 166.179 0 01-5.407 39.043c-1.27 5.754-2.543 11.554-3.593 17.53-1.11 6.25-1.836 12.72-2.383 19.231h-17.293zM145.066 375.465H265.86a235.255 235.255 0 0047.887 119.469h-168.68zm349.868 119.469H336.383a214.506 214.506 0 01-54.559-128.77c-.691-7.652-1.082-15.07-1.164-22.043-.086-6.367.09-12.867.512-19.445a202.203 202.203 0 012.773-25.207c1.02-5.739 2.243-11.309 3.461-16.832a181.782 181.782 0 005.809-42.977 195.935 195.935 0 00-8.68-54.488 193.402 193.402 0 00-20.328-44.586 165.647 165.647 0 00-50.324-52.426l-2.793-1.808c-16.031-10.375-29.89-19.332-33.2-36.45a264.764 264.764 0 01-.972-32.836h318.016zm0 0"/><path d="M195 48.04c2.559 8.866 11.3 14.89 25.36 23.976l2.882 1.87a181.992 181.992 0 0155.399 57.606 211.438 211.438 0 0122.246 48.793 8.536 8.536 0 0010.699 5.582 8.537 8.537 0 005.582-10.703 228.678 228.678 0 00-24.023-52.684 198.934 198.934 0 00-60.59-62.894l-2.922-1.895a78.054 78.054 0 01-18.02-13.867l-.133-1.722a8.535 8.535 0 00-9.082-7.954 8.54 8.54 0 00-7.949 9.086c.086 1.223.168 2.332.254 3.266.055.52.152 1.035.297 1.54zm115.266 191.32a200.113 200.113 0 01-6.309 47.472c-1.133 5.129-2.266 10.29-3.2 15.594a186.312 186.312 0 00-2.566 23.469 237.777 237.777 0 00-.468 18.023c.078 6.531.445 13.445 1.093 20.605a201.424 201.424 0 0042.465 110.247 8.533 8.533 0 1013.152-10.867 187.131 187.131 0 01-38.624-100.95c-.598-6.68-.938-13.152-1.016-19.246-.078-5.531.07-11.144.441-16.852a170.39 170.39 0 012.325-21.457c.898-5.058 1.992-9.996 3.183-15.43a211.998 211.998 0 006.59-50.89 8.528 8.528 0 00-8.531-8.39h-.14a8.503 8.503 0 00-5.993 2.597 8.542 8.542 0 00-2.402 6.074zm0 0"/></symbol><symbol viewBox="0 0 512 512" id="verificado" xmlns="http://www.w3.org/2000/svg"><path d="M437.019 74.98C388.667 26.629 324.38 0 256 0 187.619 0 123.331 26.629 74.98 74.98 26.628 123.332 0 187.62 0 256s26.628 132.667 74.98 181.019C123.332 485.371 187.619 512 256 512c68.38 0 132.667-26.629 181.019-74.981C485.371 388.667 512 324.38 512 256s-26.629-132.667-74.981-181.02zM256 482C131.383 482 30 380.617 30 256S131.383 30 256 30s226 101.383 226 226-101.383 226-226 226z"/><path d="M378.305 173.859c-5.857-5.856-15.355-5.856-21.212.001L224.634 306.319l-69.727-69.727c-5.857-5.857-15.355-5.857-21.213 0-5.858 5.857-5.858 15.355 0 21.213l80.333 80.333a14.953 14.953 0 0010.606 4.393c3.838 0 7.678-1.465 10.606-4.393l143.066-143.066c5.858-5.857 5.858-15.355 0-21.213z"/></symbol><symbol viewBox="-22 0 512 512" id="viber" xmlns="http://www.w3.org/2000/svg"><path d="M468.484 180.707c.004-48.086-18.843-93.414-53.066-127.637C381.195 18.848 335.868 0 287.778 0H180.702C132.621 0 87.29 18.848 53.07 53.066 18.848 87.293 0 132.621 0 180.707v84.164c0 37.242 11.36 73.063 32.852 103.598 18.96 26.937 44.46 47.98 74.191 61.32v48.344c0 24.996 13.996 33.867 25.98 33.867 8.563 0 17.125-4.227 25.461-12.559l53.86-53.859 75.437-.004c48.086 0 93.414-18.848 127.637-53.066 34.223-34.223 53.07-79.555 53.07-127.64zM287.781 415.578l-81.648.004c-3.98 0-7.793 1.578-10.606 4.39l-58.254 58.255c-.074.078-.152.152-.23.226v-58.676a15 15 0 00-9.652-14.015c-58.25-22.227-97.387-78.848-97.387-140.89v-84.165c0-40.074 15.726-77.871 44.281-106.43C102.84 45.727 140.633 30 180.707 30h107.07c40.075 0 77.871 15.727 106.426 44.281 28.559 28.559 44.285 66.356 44.281 106.426l.004 84.164c-.004 83.102-67.61 150.707-150.707 150.707zm0 0"/><path d="M274.133 245.336c-5.856-5.86-15.352-5.86-21.211 0l-12.117 12.113-46.953-46.949 12.117-12.113a15.003 15.003 0 000-21.215l-56.805-56.805a14.996 14.996 0 00-21.21 0l-39.766 39.766c-21.504 21.504-21.504 56.5.003 78.015l124.965 124.973c10.39 10.387 24.246 16.106 39.008 16.106 14.766 0 28.621-5.72 39.012-16.106l39.765-39.762a15.012 15.012 0 004.395-10.609c0-3.977-1.582-7.793-4.395-10.605zm-4.172 96.566c-4.723 4.723-11.043 7.325-17.797 7.325-6.754 0-13.074-2.602-17.797-7.325l-124.96-124.968c-9.813-9.813-9.817-25.782-.005-35.59l29.157-29.16 35.59 35.593-12.118 12.114a15.003 15.003 0 00-4.394 10.605c0 3.98 1.582 7.793 4.394 10.61l68.164 68.164c5.86 5.855 15.356 5.859 21.215 0l12.117-12.114 35.59 35.59zM237.883 66.355c-8.285 0-15 6.715-15 15 0 8.282 6.715 15 15 15 34.328 0 66.605 13.368 90.879 37.645 24.277 24.273 37.644 56.547 37.644 90.879 0 8.281 6.715 15 15 15 8.281 0 15-6.715 15-15 0-42.344-16.488-82.152-46.43-112.094-29.94-29.941-69.75-46.43-112.093-46.43zm0 0"/><path d="M302.14 224.875c0 8.281 6.72 15 15 15 8.286 0 15-6.719 15-15 0-51.973-42.285-94.254-94.257-94.254-8.285 0-15 6.715-15 15s6.715 15 15 15c35.433 0 64.258 28.824 64.258 64.254zm0 0"/></symbol><symbol viewBox="0 0 512 512" id="whatsapp" xmlns="http://www.w3.org/2000/svg"><path d="M439.277 72.723C392.38 25.824 330.04 0 263.711 0h-.023c-32.805.004-64.774 6.355-95.012 18.883-30.242 12.527-57.336 30.64-80.535 53.84-46.895 46.894-72.72 109.246-72.72 175.566 0 39.55 9.544 78.856 27.626 113.875L1.313 481.391c-2.942 8.41-.86 17.55 5.445 23.851C11.168 509.656 16.973 512 22.94 512c2.559 0 5.145-.43 7.668-1.313l119.227-41.73c35.02 18.082 74.324 27.625 113.875 27.625 66.32 0 128.668-25.828 175.566-72.723C486.172 376.965 512 314.613 512 248.293c0-66.324-25.824-128.676-72.723-175.57zm-21.234 329.902c-41.223 41.227-96.035 63.926-154.332 63.926-35.664 0-71.094-8.82-102.461-25.516-5.687-3.023-12.41-3.543-18.445-1.43l-108.32 37.91 37.913-108.32c2.114-6.043 1.59-12.765-1.433-18.449-16.692-31.36-25.516-66.789-25.516-102.457 0-58.297 22.703-113.11 63.926-154.332 41.219-41.219 96.023-63.922 154.316-63.93h.02c58.3 0 113.11 22.703 154.332 63.93 41.227 41.223 63.93 96.031 63.93 154.332 0 58.3-22.703 113.113-63.93 154.336zm0 0"/><path d="M355.984 270.469c-11.421-11.422-30.007-11.422-41.43 0l-12.491 12.492c-31.02-16.902-56.122-42.004-73.028-73.024l12.492-12.492c11.426-11.422 11.426-30.007 0-41.43l-33.664-33.663c-11.422-11.422-30.008-11.422-41.43 0l-26.93 26.93c-15.425 15.425-16.194 41.945-2.167 74.675 12.18 28.418 34.469 59.652 62.762 87.945 28.293 28.293 59.527 50.582 87.945 62.762 15.55 6.664 29.695 9.988 41.918 9.988 13.504 0 24.66-4.058 32.758-12.156l26.93-26.934v.004c5.535-5.535 8.581-12.89 8.581-20.714 0-7.829-3.046-15.184-8.582-20.715zm-14.5 80.793c-4.402 4.402-17.941 5.945-41.609-4.196-24.992-10.71-52.887-30.742-78.543-56.398s-45.684-53.547-56.394-78.54c-10.145-23.667-8.602-37.21-4.2-41.612l26.414-26.414 32.625 32.628-15.636 15.641c-7.07 7.07-8.778 17.793-4.243 26.684 20.559 40.312 52.735 72.488 93.047 93.047 8.895 4.535 19.618 2.832 26.688-4.243l15.637-15.636 32.628 32.629zm0 0"/></symbol></svg>